/vscmnt/brussel_pixiu_data/_data_brussel/112/vsc11236/PredSimResults/SUBJ11mtu3D/weighted-expIG/worker_03.mot
version=1
nRows=4
nColumns=50
inDegrees=yes
endheader
                time	         pelvis_tilt	         pelvis_list	     pelvis_rotation	           pelvis_tx	           pelvis_ty	           pelvis_tz	       hip_flexion_r	     hip_adduction_r	      hip_rotation_r	        knee_angle_r	       ankle_angle_r	         mtp_angle_r	       hip_flexion_l	     hip_adduction_l	      hip_rotation_l	        knee_angle_l	       ankle_angle_l	         mtp_angle_l	    lumbar_extension	      lumbar_bending	     lumbar_rotation	 ercspn_r/activation	 intobl_r/activation	 extobl_r/activation	    abd_r/activation	    add_r/activation	hamstrings_r/activation	bifemsh_r/activation	glut_max_r/activation	iliopsoas_r/activation	rect_fem_r/activation	  vasti_r/activation	gastroc_r/activation	 soleus_r/activation	tib_ant_r/activation	 ercspn_l/activation	 intobl_l/activation	 extobl_l/activation	    abd_l/activation	    add_l/activation	hamstrings_l/activation	bifemsh_l/activation	glut_max_l/activation	iliopsoas_l/activation	rect_fem_l/activation	  vasti_l/activation	gastroc_l/activation	 soleus_l/activation	tib_ant_l/activation	
          0.70132740	         -6.39748823	          4.93928598	         -8.32268336	          0.73639377	          0.93820807	          0.01730470	        -12.13725243	         -5.42089990	          4.16641760	         -7.99810076	         12.19281425	         28.26873849	         31.69750939	          1.34778572	         -4.79158178	         -4.83652465	          5.30956062	          0.23276232	         -3.71838241	         -3.33509030	          2.27304928	          0.05711397	          0.01000031	          0.01000097	          0.04377939	          0.03233346	          0.02413340	          0.11780752	          0.04649975	          0.45018409	          0.01000356	          0.01000101	          0.33614397	          0.25599309	          0.01000017	          0.08091082	          0.11452039	          0.02355667	          0.01000065	          0.13708422	          0.04387926	          0.18201066	          0.04948581	          0.08490829	          0.01001013	          0.01000058	          0.02305830	          0.01000057	          0.28924970	
          0.71535395	         -6.51259185	          4.77488449	         -8.34409146	          0.75473010	          0.93613911	          0.01656740	        -12.32115664	         -5.32842272	          3.78781062	         -9.49073398	         11.58359743	         30.33030946	         31.69549948	          1.35554854	         -4.83871536	         -6.50257018	          4.91249446	          0.18744159	         -3.40103794	         -3.61267166	          2.45064255	          0.07212694	          0.01000020	          0.01000098	          0.03548410	          0.04308448	          0.02485527	          0.09548557	          0.03768902	          0.44171972	          0.01000176	          0.01932307	          0.30568234	          0.23846734	          0.01000006	          0.06558032	          0.10882029	          0.01909319	          0.02616578	          0.12066577	          0.05540337	          0.14752425	          0.08339189	          0.06881990	          0.01000071	          0.01000022	          0.01868975	          0.01233807	          0.32101412	
          0.72938050	         -6.60523353	          4.60486429	         -8.31218842	          0.77329763	          0.93455728	          0.01573285	        -12.28893375	         -5.21779374	          3.38272402	        -11.40763360	         10.79788614	         32.48523644	         31.48960852	          1.35664860	         -4.91018821	         -7.86262038	          4.33528099	          0.17507163	         -3.08792404	         -3.89549742	          2.60040691	          0.10050107	          0.01000017	          0.01000058	          0.02876059	          0.04226843	          0.02264932	          0.07739319	          0.03054773	          0.42836059	          0.01001043	          0.01735942	          0.24959009	          0.20013304	          0.01000006	          0.07970195	          0.08820115	          0.01547544	          0.09975788	          0.14643730	          0.05541785	          0.11957206	          0.09908600	          0.05577993	          0.01000054	          0.01000011	          0.01514852	          0.01000033	          0.36155174	
          0.74340705	         -6.67451005	          4.42927687	         -8.23123720	          0.79180419	          0.93367589	          0.01480415	        -11.94760002	         -5.08739019	          2.95874115	        -13.87088817	          9.81715436	         34.65376032	         31.17747575	          1.36533870	         -5.00862039	         -9.06563611	          3.73034806	          0.13254328	         -2.80506515	         -4.18375867	          2.71886616	          0.13151161	          0.01000018	          0.01000064	          0.02331105	          0.05972328	          0.02030560	          0.06272904	          0.02475957	          0.40049827	          0.01000253	          0.01407030	          0.20229780	          0.16221188	          0.01000006	          0.08238336	          0.07148888	          0.01254320	          0.13832160	          0.17102765	          0.04896762	          0.09691586	          0.12433746	          0.04521078	          0.01000089	          0.01770089	          0.01227986	          0.01006974	          0.38936058	
